<?xml version="1.0" encoding="UTF-8"?>
<svg width="76px" height="76px" viewBox="0 0 76 76" version="1.1" xmlns="http://www.w3.org/2000/svg" xmlns:xlink="http://www.w3.org/1999/xlink">
    <!-- Generator: Sketch 64 (93537) - https://sketch.com -->
    <title>client_logos-wfp</title>
    <desc>Created with Sketch.</desc>
    <defs>
        <path d="M0.5,13.84 C0.5,6.473 6.473,0.5 13.84,0.5 L62.16,0.5 C69.527,0.5 75.5,6.473 75.5,13.84 L75.5,62.16 C75.5,69.527 69.527,75.5 62.16,75.5 L13.84,75.5 C6.473,75.5 0.5,69.527 0.5,62.16 L0.5,13.84 Z" id="path-1"></path>
        <linearGradient x1="0%" y1="0%" x2="100%" y2="0%" id="linearGradient-3">
            <stop stop-color="#2B2B2B" offset="0%"></stop>
            <stop stop-color="#232323" offset="100%"></stop>
        </linearGradient>
        <path d="M0.5,13.84 C0.5,6.473 6.473,0.5 13.84,0.5 L62.16,0.5 C69.527,0.5 75.5,6.473 75.5,13.84 L75.5,62.16 C75.5,69.527 69.527,75.5 62.16,75.5 L13.84,75.5 C6.473,75.5 0.5,69.527 0.5,62.16 L0.5,13.84 Z" id="path-4"></path>
    </defs>
    <g id="Page-1" stroke="none" stroke-width="1" fill="none" fill-rule="evenodd">
        <g id="client_logos-wfp">
            <g id="interface">
                <g id="Group">
                    <g id="a1000z-link">
                        <g id="a1000z-Clipped">
                            <mask id="mask-2" fill="white">
                                <use xlink:href="#path-1"></use>
                            </mask>
                            <g id="a1000z"></g>
                            <path d="M0.5,13.84 C0.5,6.473 6.473,0.5 13.84,0.5 L62.16,0.5 C69.527,0.5 75.5,6.473 75.5,13.84 L75.5,62.16 C75.5,69.527 69.527,75.5 62.16,75.5 L13.84,75.5 C6.473,75.5 0.5,69.527 0.5,62.16 L0.5,13.84 Z" id="a1000z" stroke="#000000" stroke-width="1.68" fill="#000000" fill-rule="nonzero" mask="url(#mask-2)"></path>
                        </g>
                    </g>
                    <g id="a1000z-link" fill="url(#linearGradient-3)" fill-rule="nonzero">
                        <path d="M0.5,13.84 C0.5,6.473 6.473,0.5 13.84,0.5 L62.16,0.5 C69.527,0.5 75.5,6.473 75.5,13.84 L75.5,62.16 C75.5,69.527 69.527,75.5 62.16,75.5 L13.84,75.5 C6.473,75.5 0.5,69.527 0.5,62.16 L0.5,13.84 Z" id="a1000z"></path>
                    </g>
                    <g id="a1000z-link" fill="#000000" fill-rule="nonzero">
                        <path d="M0.5,13.84 C0.5,6.473 6.473,0.5 13.84,0.5 L62.16,0.5 C69.527,0.5 75.5,6.473 75.5,13.84 L75.5,62.16 C75.5,69.527 69.527,75.5 62.16,75.5 L13.84,75.5 C6.473,75.5 0.5,69.527 0.5,62.16 L0.5,13.84 Z" id="a1000z"></path>
                    </g>
                    <g id="a1000z-link">
                        <g id="a1000z-Clipped">
                            <mask id="mask-5" fill="white">
                                <use xlink:href="#path-4"></use>
                            </mask>
                            <g id="a1000z"></g>
                            <path d="M0.5,13.84 C0.5,6.473 6.473,0.5 13.84,0.5 L62.16,0.5 C69.527,0.5 75.5,6.473 75.5,13.84 L75.5,62.16 C75.5,69.527 69.527,75.5 62.16,75.5 L13.84,75.5 C6.473,75.5 0.5,69.527 0.5,62.16 L0.5,13.84 Z" id="a1000z" stroke-opacity="0.00999999978" stroke="#FFFFFF" stroke-width="1.68" fill="#000000" fill-rule="nonzero" mask="url(#mask-5)"></path>
                        </g>
                    </g>
                </g>
            </g>
            <g id="world-food-programme-wfp-vector-logo" transform="translate(13.000000, 16.000000)" fill="#FFFFFF" fill-rule="nonzero">
                <path d="M30.8974103,3.2283105 L31.377062,3.2283105 C31.8247369,3.2283105 32.1445047,3.13242009 32.3683422,2.97260274 C32.5921796,2.81278539 32.68811,2.55707763 32.68811,2.20547945 C32.68811,1.85388128 32.5921796,1.63013699 32.400319,1.47031963 C32.2084583,1.31050228 31.9206673,1.21461187 31.5369459,1.21461187 L30.8974103,1.21461187 L30.8974103,3.2283105 L30.8974103,3.2283105 Z M34.1590418,2.14155251 C34.1590418,2.87671233 33.9352044,3.42009132 33.4875295,3.80365297 C33.0398545,4.18721461 32.3683422,4.37899543 31.5369459,4.37899543 L30.9293871,4.37899543 L30.9293871,6.77625571 L29.490432,6.77625571 L29.490432,0 L31.664853,0 C32.4962493,0 33.1038081,0.191780822 33.551483,0.543378995 C33.9352044,0.926940639 34.1590418,1.43835616 34.1590418,2.14155251 Z M25.9090328,6.80821918 L24.5020545,6.80821918 L24.5020545,0.0319634703 L28.4032216,0.0319634703 L28.4032216,1.21461187 L25.9410095,1.21461187 L25.9410095,2.97260274 L28.2433377,2.97260274 L28.2433377,4.15525114 L25.9410095,4.15525114 L25.9410095,6.80821918 L25.9090328,6.80821918 Z M22.0078657,6.80821918 L20.3770499,6.80821918 L19.4497233,3.26027397 C19.4177466,3.13242009 19.353793,2.87671233 19.2898395,2.46118721 C19.1939091,2.07762557 19.1619323,1.78995434 19.1619323,1.66210046 C19.1299556,1.82191781 19.0979788,2.10958904 19.0340252,2.46118721 C18.9700717,2.84474886 18.9061181,3.10045662 18.8741413,3.26027397 L17.9468147,6.80821918 L16.315999,6.80821918 L14.5892529,0.0319634703 L15.9962312,0.0319634703 L16.8596042,3.73972603 C17.0194881,4.4109589 17.1154185,5.01826484 17.179372,5.52968037 C17.2113488,5.33789954 17.2433256,5.08219178 17.3072791,4.69863014 C17.3712327,4.31506849 17.4351863,4.02739726 17.4991398,3.83561644 L18.49042,0.0319634703 L19.8654215,0.0319634703 L20.8567016,3.83561644 C20.8886784,3.99543379 20.952632,4.25114155 21.0165855,4.60273973 C21.0805391,4.9543379 21.1444926,5.24200913 21.1764694,5.49771689 C21.2084462,5.24200913 21.2723998,4.9543379 21.3363533,4.60273973 C21.4003069,4.25114155 21.4642604,3.96347032 21.528214,3.73972603 L22.391587,0.0319634703 L23.7985653,0.0319634703 L22.0078657,6.80821918 Z M18.49042,30.3972603 C15.8683241,30.3972603 14.1735548,31.0365297 13.6939031,31.2283105 C13.6619263,31.2283105 13.6299495,31.196347 13.6619263,31.1643836 C16.5718132,28.1598174 19.9613518,28.3196347 20.7607713,28.3196347 C21.5921676,28.3196347 30.4177586,28.3196347 30.4177586,28.3196347 C30.8974103,28.3196347 31.3131085,28.7990868 31.3131085,29.3424658 C31.3131085,29.9178082 30.9293871,30.3652968 30.4177586,30.3652968 C30.4177586,30.3972603 20.7287945,30.3972603 18.49042,30.3972603 Z M20.664841,33.0821918 C17.8189076,33.0821918 16.9875113,31.4840183 12.7026229,32.5388128 C12.6706461,32.5388128 12.6386694,32.5068493 12.6706461,32.4748858 C15.0689046,30.8447489 17.6590237,30.9726027 18.7142574,30.9726027 C19.5456537,30.9726027 30.4177586,30.9726027 30.4177586,30.9726027 C30.8974103,30.9726027 31.3131085,31.4520548 31.3131085,31.9954338 C31.3131085,32.5707763 30.9293871,33.0182648 30.4177586,33.0182648 C30.4177586,33.0502283 22.9032155,33.0821918 20.664841,33.0821918 Z M20.8567016,35.7031963 C17.9468147,35.7031963 17.7229773,33.5616438 13.3741353,33.0821918 C13.3421585,33.0821918 13.3421585,33.0182648 13.3741353,33.0182648 C16.9235578,32.1232877 18.2346057,33.6255708 20.3130964,33.6255708 C21.1444926,33.6255708 30.3857819,33.6255708 30.3857819,33.6255708 C30.8654336,33.6255708 31.2811317,34.1050228 31.2811317,34.6484018 C31.2811317,35.2237443 30.8974103,35.6712329 30.3857819,35.6712329 C30.4177586,35.7031963 23.127053,35.7031963 20.8567016,35.7031963 Z M20.217166,27.7762557 C17.8828612,27.7762557 15.9322776,28.7990868 15.4526259,29.0547945 C15.4206492,29.0547945 15.3886724,29.0228311 15.4206492,29.0228311 C15.8043705,28.4474886 17.8508844,25.6986301 21.4003069,25.6986301 C22.2317031,25.6986301 30.3857819,25.6986301 30.3857819,25.6986301 C30.8654336,25.6986301 31.2811317,26.1780822 31.2811317,26.7214612 C31.2811317,27.2968037 30.8974103,27.7442922 30.3857819,27.7442922 C30.4177586,27.7762557 22.4875174,27.7762557 20.217166,27.7762557 Z M33.1357849,22.0547945 C33.0398545,21.9589041 32.9119474,21.8949772 32.7520635,21.8630137 C32.6241564,21.8630137 32.5282261,21.8630137 32.4322957,21.8949772 C32.4642725,21.7990868 32.4962493,21.7031963 32.5282261,21.6073059 C32.5602029,21.4474886 32.5282261,21.2876712 32.4642725,21.1598174 C32.1764815,20.5205479 33.0078778,19.2420091 32.9119474,19.2100457 C32.8160171,19.1461187 32.3363654,20.5525114 31.8886905,21.1278539 C31.7927602,21.2237443 31.7288066,21.3835616 31.7288066,21.543379 C31.7288066,21.7031963 31.7288066,21.8630137 31.7927602,21.9908676 C31.8567137,22.1187215 31.9526441,22.1826484 32.0805512,22.1826484 C32.1125279,22.1826484 32.1445047,22.1826484 32.1764815,22.1826484 C32.1764815,22.2146119 32.1764815,22.2146119 32.1764815,22.2465753 C32.1445047,22.3744292 32.2084583,22.5022831 32.3043886,22.56621 C32.400319,22.6621005 32.5282261,22.7260274 32.68811,22.7579909 C32.8479939,22.7899543 33.0078778,22.7579909 33.1038081,22.6621005 C33.7113669,22.3105023 35.0224149,21.9908676 34.9904381,21.8630137 C34.8945077,21.7671233 33.6474134,22.5022831 33.1357849,22.0547945 Z M34.0950883,21.1278539 C33.9991579,21.0319635 33.8712508,20.9680365 33.7433437,20.9680365 C33.6474134,20.9680365 33.5834598,20.9680365 33.5195062,21 C33.5195062,20.9680365 33.551483,20.9360731 33.551483,20.8721461 C33.551483,20.7123288 33.5195062,20.5844749 33.4555527,20.4885845 C33.1357849,19.913242 33.9671811,18.7945205 33.8712508,18.7305936 C33.7753205,18.6666667 33.3276456,19.913242 32.8479939,20.3926941 C32.7520635,20.4885845 32.68811,20.6164384 32.68811,20.7442922 C32.68811,20.9041096 32.7200868,21.0319635 32.7840403,21.1598174 C32.8479939,21.2557078 32.9439242,21.3515982 33.0718313,21.3515982 C33.1357849,21.3515982 33.1677617,21.3515982 33.2317152,21.3196347 C33.2317152,21.3196347 33.2317152,21.3196347 33.2317152,21.3515982 C33.2317152,21.4794521 33.263692,21.6073059 33.3596223,21.7031963 C33.4555527,21.7990868 33.5834598,21.8630137 33.7113669,21.8630137 C33.839274,21.8630137 33.9991579,21.8310502 34.0950883,21.7671233 C34.6386935,21.3835616 35.8538111,21.1598174 35.8218343,21.0319635 C35.725904,20.9360731 34.57474,21.5753425 34.0950883,21.1278539 Z M34.9264845,20.2648402 C34.8305542,20.2009132 34.7026471,20.1689498 34.6067167,20.1689498 C34.5427632,20.1689498 34.4788096,20.2009132 34.4468328,20.2009132 C34.4468328,20.1689498 34.4788096,20.1689498 34.4788096,20.1369863 C34.5107864,20.0091324 34.5107864,19.8812785 34.4468328,19.7534247 C34.2549722,19.1780822 35.1183452,18.3150685 35.0543916,18.2511416 C34.9584613,18.1872146 34.3828793,19.2100457 33.9352044,19.5936073 C33.839274,19.6575342 33.7753205,19.7534247 33.7433437,19.913242 C33.7113669,20.0410959 33.7113669,20.1689498 33.7753205,20.2968037 C33.8072973,20.3926941 33.9032276,20.4885845 33.9991579,20.5205479 C34.0631115,20.5525114 34.1590418,20.5205479 34.2229954,20.4885845 C34.2229954,20.5205479 34.1910186,20.5844749 34.1910186,20.6484018 C34.1910186,20.7762557 34.2549722,20.8721461 34.3509025,20.9360731 C34.4468328,21 34.57474,21.0319635 34.6706703,21.0319635 C34.7985774,21.0319635 34.9264845,20.9680365 34.9904381,20.8721461 C35.4061362,20.456621 36.4613699,20.0410959 36.4293932,19.9452055 C36.3654396,19.8173516 35.4061362,20.5844749 34.9264845,20.2648402 Z M36.5573003,18.4109589 C36.4613699,18.283105 35.725904,19.0821918 35.1822988,19.1780822 C35.0863684,19.1780822 34.9584613,19.2420091 34.862531,19.3378995 C34.7666006,19.43379 34.7026471,19.5296804 34.6706703,19.6575342 C34.6386935,19.7534247 34.6706703,19.8812785 34.7026471,19.9452055 C34.7666006,20.0091324 34.862531,20.0410959 34.9584613,20.0410959 C35.0543916,20.0410959 35.1822988,19.9771689 35.2782291,19.8812785 C35.3741594,19.7853881 35.438113,19.6894977 35.4700898,19.5616438 C35.6619505,18.9863014 36.6212538,18.5068493 36.5573003,18.4109589 Z M21.2723998,19.4977169 C21.240423,19.5936073 21.0805391,20.2009132 21.0805391,20.2009132 C21.0485623,20.2328767 20.8567016,20.1689498 20.7927481,20.1689498 C20.4410035,20.1369863 20.0892589,19.8173516 20.2491428,19.43379 C20.3770499,19.1141553 20.6008874,19.0821918 20.8886784,19.0821918 C21.0165855,19.0821918 21.240423,19.1141553 21.3363533,19.1780822 C21.3683301,19.2100457 21.3043765,19.369863 21.2723998,19.4977169 Z M20.8567016,21.3835616 C20.8567016,21.4474886 20.8247249,21.5114155 20.8247249,21.6073059 C20.6008874,21.4794521 20.4729803,21.1278539 20.5689106,20.8721461 C20.664841,20.6803653 20.8567016,20.6164384 21.0165855,20.6164384 C20.952632,20.8721461 20.8886784,21.1278539 20.8567016,21.3835616 Z M20.5369338,23.716895 C20.5049571,23.8767123 20.2811196,23.9086758 20.1532125,23.9406393 C19.7375144,24.0684932 19.3218162,24.0045662 19.1939091,23.4931507 C19.066002,22.9497717 19.4817001,22.7260274 19.8973983,22.5981735 C20.1532125,22.5342466 20.3770499,22.5981735 20.5369338,22.7899543 C20.5689106,22.8538813 20.6328642,22.8858447 20.6328642,22.9497717 C20.6328642,22.9817352 20.5369338,23.5890411 20.5369338,23.716895 Z M19.1619323,21.0319635 C19.4817001,20.9680365 19.8334447,20.8401826 20.0892589,21.1598174 C20.3450732,21.5114155 20.2811196,22.0547945 19.8334447,22.1826484 C19.5456537,22.2785388 19.1939091,22.3744292 18.9700717,22.1187215 C18.6503039,21.8310502 18.6822806,21.1278539 19.1619323,21.0319635 Z M18.8421645,19.2420091 C19.1939091,19.1461187 19.5456537,19.0182648 19.8334447,19.369863 C20.1212357,19.7214612 20.0253054,20.2968037 19.5776305,20.456621 C19.2898395,20.5525114 18.9061181,20.6484018 18.6503039,20.3926941 C18.3305361,20.1050228 18.3305361,19.369863 18.8421645,19.2420091 Z M18.5223967,23.0776256 C18.4264664,23.3972603 18.1706522,23.4292237 17.8828612,23.5251142 C17.6910005,23.3013699 17.2113488,22.7260274 17.2113488,22.6621005 C17.2113488,22.630137 17.2113488,22.630137 17.2113488,22.5981735 C17.2433256,22.5342466 17.3072791,22.4703196 17.3712327,22.4383562 C17.5311166,22.3424658 17.8828612,22.2465753 18.0747218,22.2785388 C18.4264664,22.3424658 18.6183271,22.7579909 18.5223967,23.0776256 Z M16.7956507,21.4474886 C16.5398364,20.5525114 18.0427451,20.1689498 18.2665825,21.0319635 C18.49042,21.9269406 16.9875113,22.3105023 16.7956507,21.4474886 Z M16.5718132,19.6894977 C16.315999,18.826484 17.8189076,18.4109589 18.0427451,19.2739726 C18.2665825,20.1689498 16.7636739,20.5525114 16.5718132,19.6894977 Z M16.3799525,17.9634703 C16.1241383,17.1324201 17.5311166,16.7808219 17.754954,17.5799087 C17.9468147,18.4109589 16.5718132,18.7625571 16.3799525,17.9634703 Z M16.2200686,21.2876712 C16.1561151,21.3196347 16.1241383,21.3515982 16.0921615,21.3515982 L15.4206492,20.6164384 C15.4206492,20.5844749 15.6444866,20.456621 15.7084402,20.3926941 C16.2840222,20.1050228 16.7316971,21 16.2200686,21.2876712 Z M14.9729742,19.6575342 C14.6532065,18.9223744 15.8363473,18.1552511 16.2200686,18.9223744 C16.5398364,19.6575342 15.3247188,20.456621 14.9729742,19.6575342 Z M15.9642544,17.3561644 C16.3479758,18.0273973 15.1968117,18.7945205 14.8770439,18.0593607 C14.5892529,17.4520548 15.6125098,16.716895 15.9642544,17.3561644 Z M15.004951,15.7899543 C15.1648349,15.630137 15.3566956,15.56621 15.5805331,15.6621005 C15.9003008,15.8219178 15.9003008,16.3013699 15.6444866,16.4931507 C15.5165795,16.5890411 15.292742,16.6849315 15.1328581,16.652968 C14.7811136,16.5570776 14.71716,16.0456621 15.004951,15.7899543 Z M15.0689046,14.3515982 C15.1968117,14.2557078 15.3886724,14.1598174 15.5485563,14.2237443 C15.8363473,14.3515982 15.8363473,14.7671233 15.5805331,14.9269406 C15.4846027,14.9908676 15.292742,15.086758 15.1648349,15.0547945 C14.8450671,15.0228311 14.7811136,14.543379 15.0689046,14.3515982 Z M15.8363473,12.3059361 C15.9962312,12.2100457 16.2520454,12.1780822 16.4119293,12.3378995 C16.60379,12.5296804 16.5398364,12.8493151 16.2840222,12.9771689 C16.0921615,13.0730594 15.8683241,13.1050228 15.7084402,12.9452055 C15.5485563,12.7534247 15.5805331,12.43379 15.8363473,12.3059361 Z M15.6764634,13.8721461 C15.5485563,13.3607306 16.4119293,13.1050228 16.5398364,13.6484018 C16.6997203,14.1278539 15.8363473,14.3835616 15.6764634,13.8721461 Z M17.0834417,14.7671233 C17.2753024,15.3105023 16.3479758,15.630137 16.1561151,15.086758 C15.9642544,14.5114155 16.9235578,14.2237443 17.0834417,14.7671233 Z M17.2113488,12.0502283 C17.4032095,11.9863014 17.6270469,11.890411 17.8189076,12.0502283 C18.0747218,12.2420091 18.0107683,12.6575342 17.7229773,12.7853881 C17.5311166,12.8812785 17.3072791,12.913242 17.1154185,12.7853881 C16.9235578,12.5936073 16.891581,12.1780822 17.2113488,12.0502283 Z M17.0194881,16.716895 C16.7636739,16.7808219 16.5078597,16.8767123 16.2840222,16.652968 C16.028208,16.3652968 16.0921615,15.8858447 16.4439061,15.7579909 C16.6677435,15.6621005 16.9875113,15.630137 17.179372,15.8219178 C17.467163,16.0456621 17.4351863,16.6210046 17.0194881,16.716895 Z M17.0514649,13.8721461 C16.891581,13.3287671 17.7869308,13.0410959 17.9468147,13.5844749 C18.1066986,14.1278539 17.179372,14.4155251 17.0514649,13.8721461 Z M18.5543735,14.8630137 C18.778211,15.5022831 17.6910005,15.8219178 17.4991398,15.2146119 C17.3072791,14.5753425 18.3625129,14.2557078 18.5543735,14.8630137 Z M18.5863503,13.2009132 C18.778211,13.1369863 18.9700717,13.1689498 19.1299556,13.3287671 C19.353793,13.5525114 19.2578627,13.9680365 18.9380949,14.0319635 C18.778211,14.0639269 18.5543735,14.0639269 18.4264664,13.9360731 C18.2346057,13.7442922 18.2346057,13.2968037 18.5863503,13.2009132 Z M19.5136769,14.5114155 C19.8654215,14.5114155 20.0253054,15.0228311 19.8334447,15.2785388 C19.7055376,15.4383562 19.4497233,15.4383562 19.2898395,15.4063927 C18.9700717,15.3424658 18.7462342,14.9269406 18.9700717,14.6392694 C19.0979788,14.4794521 19.3218162,14.5114155 19.5136769,14.5114155 Z M17.8508844,16.5890411 C17.6270469,15.8538813 18.8741413,15.5342466 19.066002,16.2694064 C19.2578627,16.9726027 18.0107683,17.2922374 17.8508844,16.5890411 Z M18.6183271,17.5159817 C18.9700717,17.4840183 19.2898395,17.3881279 19.5136769,17.739726 C19.7375144,18.1232877 19.5776305,18.6347032 19.1299556,18.7305936 C18.8421645,18.7945205 18.49042,18.826484 18.2985593,18.5707763 C18.0107683,18.2191781 18.1386754,17.5479452 18.6183271,17.5159817 Z M20.3130964,15.8858447 C20.7287945,16.0456621 20.8567016,16.5570776 20.5689106,16.8127854 C20.4090267,16.9406393 20.1212357,16.9406393 19.929375,16.8767123 C19.5456537,16.8127854 19.2898395,16.2374429 19.641584,15.9497717 C19.8334447,15.8219178 20.1212357,15.8219178 20.3130964,15.8858447 Z M20.9846088,17.6438356 C21.240423,17.9634703 21.1444926,18.5388128 20.6968177,18.5707763 C20.4729803,18.5707763 20.1532125,18.5707763 19.9933286,18.347032 C19.7375144,18.0273973 19.8334447,17.4520548 20.2811196,17.4200913 C20.5049571,17.4200913 20.8247249,17.4520548 20.9846088,17.6438356 Z M22.7433316,11.890411 C22.7113548,11.8584475 22.6793781,11.826484 22.6154245,11.8584475 C22.5514709,11.890411 22.5194942,11.9223744 22.5514709,11.9863014 C23.6067047,14.7671233 22.2636799,16.173516 21.7200747,18.1232877 C21.0485623,16.5251142 23.2549601,15.0228311 22.1357728,12.1461187 C22.103796,12.1141553 22.103796,12.0821918 22.0398425,12.0821918 C21.9758889,12.0821918 21.9439121,12.0821918 21.9119354,12.1780822 C21.8799586,12.369863 21.7520515,14 20.4410035,14.9269406 C20.3130964,14.6073059 20.1212357,14.2876712 19.8334447,14.0319635 C19.7055376,13.4885845 19.353793,12.7534247 18.6183271,12.5296804 C18.5223967,12.2420091 18.2985593,11.8584475 17.8508844,11.6347032 C17.4351863,11.4429224 16.9875113,11.4429224 16.4439061,11.6986301 C15.8043705,11.7625571 15.3886724,12.0182648 15.1648349,12.43379 C14.9409975,12.8173516 14.9729742,13.2328767 15.0689046,13.5205479 C14.5252993,14.0958904 14.5252993,14.9269406 14.5252993,15.2465753 C14.2055315,16.0136986 14.3973922,16.8767123 14.4933226,17.260274 C14.1096012,18.283105 14.4933226,19.2739726 14.6212297,19.6255708 C14.6212297,19.7214612 14.6212297,19.7853881 14.6212297,19.8812785 C13.3741353,18.5388128 10.5921555,16.8767123 9.50494498,16.2374429 C9.44099143,16.2054795 9.37703787,16.2054795 9.34506109,16.2694064 C9.28110753,16.3333333 9.28110753,16.3972603 9.34506109,16.4611872 C11.7433195,18.7945205 13.8857637,21.6712329 15.9322776,27.6484018 C16.9555346,26.5936073 18.8101878,25.1872146 21.4322837,25.1872146 L24.5020545,25.1872146 C22.5514709,17.8356164 25.3974043,15.2146119 22.7433316,11.890411 Z M37.2927662,15.6621005 C36.7171842,15.5022831 33.1357849,14.8949772 29.1067107,22.2785388 C29.6822927,19.5296804 31.4729924,16.173516 31.9526441,15.2146119 L31.9526441,15.2146119 C31.9846208,15.1506849 31.9526441,15.086758 31.9206673,15.0547945 C31.8567137,15.0228311 31.7927602,15.0228311 31.7607834,15.086758 C29.1067107,19.5296804 28.1793841,22.086758 27.6038021,25.1232877 L29.2665946,25.1232877 C29.5543856,22.1826484 33.263692,15.2465753 37.2288126,15.7579909 L37.2288126,15.7579909 C37.2607894,15.7579909 37.2607894,15.7579909 37.2607894,15.7260274 C37.324743,15.6621005 37.2927662,15.6621005 37.2927662,15.6621005 Z M29.2665946,40.0182648 L28.3712448,36.2465753 L26.8363594,36.2465753 C27.0921736,37.2054795 27.4119414,38.1643836 27.8596163,39.0273973 C27.8915931,39.0913242 27.9555466,39.1232877 27.9875234,39.0913242 C28.051477,39.0913242 28.1154305,38.9954338 28.1154305,38.9315068 C28.0195002,38.1324201 27.8915931,37.3652968 27.763686,36.5981735 C28.0834538,37.8127854 28.5311287,38.9954338 29.1067107,40.0502283 C29.1386875,40.0821918 29.1706643,40.1141553 29.202641,40.0821918 C29.2665946,40.1141553 29.2985714,40.0821918 29.2665946,40.0182648 Z M30.8334568,38.3242009 C30.6735729,37.6849315 30.513689,36.9178082 30.3857819,36.2785388 L29.8101998,36.2785388 C30.0340373,36.9817352 30.3538051,37.7488584 30.6096193,38.4200913 C30.6415961,38.4840183 30.7055497,38.5159817 30.7695032,38.5159817 C30.80148,38.4840183 30.8334568,38.3881279 30.8334568,38.3242009 Z M31.0253175,40.5296804 L31.0253175,40.5296804 C30.8334568,39.9863014 30.5776425,39.5388128 30.3538051,39.0273973 C30.1299676,38.5159817 29.9061302,38.0365297 29.7462463,37.4931507 C29.5863624,37.109589 29.4584553,36.6621005 29.3305482,36.2465753 L28.7549661,36.2465753 C28.91485,36.7260274 29.1067107,37.2374429 29.2985714,37.6849315 C29.7142695,38.7077626 30.225898,39.7305936 30.8334568,40.6255708 C30.8654336,40.6575342 30.8974103,40.6575342 30.9293871,40.6575342 C31.0253175,40.6575342 31.0253175,40.5936073 31.0253175,40.5296804 Z M31.8567137,22.4703196 C31.8247369,22.4063927 31.6968298,22.4063927 31.664853,22.4383562 C30.6415961,23.5251142 30.0340373,24.6757991 29.8101998,25.0913242 L30.4177586,25.0913242 C30.7375264,24.3881279 31.4090388,23.109589 31.8567137,22.6621005 L31.8567137,22.6621005 C31.8886905,22.630137 31.9206673,22.5342466 31.8567137,22.4703196 Z M27.2520575,17.260274 C27.8276395,16.3333333 28.6590358,15.630137 29.3625249,14.7671233 C29.3945017,14.7351598 29.3945017,14.6712329 29.3625249,14.6712329 C29.3305482,14.6392694 29.2985714,14.6392694 29.2665946,14.6712329 C29.1067107,14.8310502 28.9468268,14.9908676 28.7549661,15.1506849 C28.6910126,15.1187215 28.4991519,15.1826484 28.3072912,15.3424658 C28.1474073,15.4703196 28.051477,15.5981735 28.0195002,15.6940639 C27.9235699,15.6621005 27.7317092,15.7899543 27.5718253,15.9817352 C27.4439182,16.173516 27.3479878,16.3333333 27.3479878,16.4611872 C27.2520575,16.4611872 27.0921736,16.5890411 26.9642665,16.8127854 C26.8683361,16.9406393 26.8363594,17.1004566 26.8043826,17.196347 C26.7084522,17.260274 26.6125219,17.3561644 26.5485684,17.5159817 C26.4206612,17.7077626 26.3886845,17.8995434 26.3886845,18.0273973 C26.3567077,18.0913242 26.3247309,18.1232877 26.3247309,18.1552511 C26.3247309,18.1232877 26.3247309,18.0913242 26.3247309,18.0273973 C26.4846148,16.716895 26.740429,15.4383562 27.0921736,14.1917808 C27.4439182,12.9452055 27.8915931,11.6986301 28.6590358,10.6757991 L28.6590358,10.6757991 C28.6910126,10.6118721 28.6910126,10.5479452 28.6590358,10.4840183 C28.627059,10.4200913 28.5311287,10.4200913 28.4671751,10.4840183 C28.2113609,10.7716895 27.9875234,11.0593607 27.7956627,11.3789954 C27.6997324,11.347032 27.5398485,11.5068493 27.3799646,11.7625571 C27.2520575,12.0182648 27.2200807,12.2100457 27.2520575,12.3059361 C27.2520575,12.3059361 27.2520575,12.3059361 27.2520575,12.3059361 C27.1561272,12.2739726 26.9962433,12.4657534 26.9003129,12.7534247 C26.8043826,13.0091324 26.7724058,13.2328767 26.8363594,13.3287671 C26.8363594,13.3287671 26.8363594,13.3287671 26.8363594,13.3287671 C26.740429,13.2968037 26.5805451,13.5205479 26.452638,13.8401826 C26.3567077,14.1278539 26.3567077,14.3515982 26.4206612,14.4474886 C26.4206612,14.4474886 26.4206612,14.4794521 26.4206612,14.4474886 C26.3247309,14.4155251 26.164847,14.6392694 26.0689167,14.9908676 C25.9729863,15.3105023 25.9729863,15.5981735 26.0689167,15.630137 C25.9729863,15.630137 25.8131024,15.8538813 25.7491489,16.173516 C25.6851953,16.4611872 25.6851953,16.6849315 25.7491489,16.7808219 C25.6532185,16.8127854 25.5253114,17.0365297 25.4933346,17.3561644 C25.4293811,17.6438356 25.4613579,17.8995434 25.5253114,17.9634703 C25.4293811,17.9954338 25.3334507,18.2511416 25.301474,18.5388128 C25.2694972,18.826484 25.301474,19.0821918 25.3974043,19.1461187 C25.3334507,19.2420091 25.2375204,19.43379 25.2055436,19.6894977 C25.1735668,19.913242 25.2055436,20.1369863 25.2375204,20.2328767 C25.1415901,20.2968037 25.0776365,20.5525114 25.0776365,20.8401826 C25.0776365,21.0639269 25.1096133,21.2557078 25.1735668,21.3835616 C25.1415901,21.5114155 25.1096133,21.6712329 25.1096133,21.8630137 C25.1096133,22.1187215 25.1415901,22.3105023 25.2055436,22.4063927 C25.1735668,23.2694064 25.2055436,24.1643836 25.2375204,24.9954338 L27.0601968,24.9954338 C27.0601968,24.3242009 27.1241504,23.6210046 27.1881039,22.9497717 C27.3160111,21.7990868 27.5078717,20.5844749 28.0834538,19.5936073 L28.0834538,19.5936073 C28.1154305,19.5616438 28.0834538,19.5296804 28.0834538,19.4977169 C28.051477,19.4657534 27.9875234,19.4657534 27.9555466,19.4977169 C27.1561272,20.4246575 26.8043826,21.6712329 26.6125219,22.8538813 C26.5805451,23.0776256 26.5485684,23.3333333 26.5165916,23.5570776 C26.5805451,22.5981735 26.6444987,21.6392694 26.8683361,20.7442922 C27.1241504,19.6255708 27.6357788,18.5707763 28.5950822,17.9954338 C28.627059,17.9634703 28.627059,17.9315068 28.627059,17.8995434 C28.627059,17.8675799 28.5631054,17.8356164 28.5311287,17.8356164 C28.4671751,17.8675799 28.4032216,17.8995434 28.339268,17.8995434 C28.2753144,17.8356164 28.051477,17.8675799 27.7956627,18.0273973 C27.5718253,18.1872146 27.4119414,18.347032 27.4439182,18.4748858 C27.4439182,18.4748858 27.4439182,18.4748858 27.4439182,18.4748858 C27.4439182,18.4748858 27.4439182,18.4429224 27.4439182,18.4429224 C27.3479878,18.3789954 27.1241504,18.5388128 26.9322897,18.7945205 C26.740429,19.0821918 26.6444987,19.3378995 26.740429,19.43379 C26.740429,19.43379 26.740429,19.43379 26.740429,19.43379 C26.6444987,19.4018265 26.452638,19.6255708 26.3567077,19.9452055 C26.2927541,20.1689498 26.2607773,20.3926941 26.2927541,20.4885845 C26.2927541,20.4885845 26.2927541,20.4885845 26.2927541,20.4885845 C26.2288006,20.7442922 26.1328702,21 26.1008934,21.2876712 C26.1328702,20.9041096 26.164847,20.5205479 26.1968238,20.1369863 C26.3247309,19.2420091 26.6444987,18.1552511 27.2520575,17.260274 Z M33.0078778,14.2557078 C32.8799707,14.1917808 32.7520635,14.1917808 32.5921796,14.2237443 C32.4642725,14.2557078 32.400319,14.3196347 32.3043886,14.3835616 C32.3043886,14.2876712 32.3043886,14.1917808 32.3043886,14.0958904 C32.2724118,13.9360731 32.1764815,13.8082192 32.0805512,13.7123288 C31.6008995,13.2328767 31.9206673,11.7305936 31.8247369,11.7305936 C31.6968298,11.7305936 31.7607834,13.2009132 31.5049691,13.8721461 C31.4729924,14 31.4410156,14.1598174 31.5049691,14.3196347 C31.5369459,14.4794521 31.6328763,14.6073059 31.7288066,14.7031963 C31.8247369,14.7990868 31.9526441,14.8310502 32.0485744,14.7990868 C32.0805512,14.7990868 32.1125279,14.7671233 32.1445047,14.7671233 C32.1445047,14.7990868 32.1445047,14.7990868 32.1445047,14.8310502 C32.1764815,14.9589041 32.2404351,15.0547945 32.3683422,15.086758 C32.4962493,15.1506849 32.6241564,15.1506849 32.7840403,15.1187215 C32.9439242,15.086758 33.0718313,14.9908676 33.1677617,14.8949772 C33.6474134,14.3515982 34.7346239,13.5844749 34.6706703,13.4885845 C34.5427632,13.3607306 33.6154366,14.4794521 33.0078778,14.2557078 Z M35.1183452,12.369863 C35.0543916,12.2739726 34.1590418,13.2968037 33.5834598,13.0410959 C33.4555527,12.9771689 33.3276456,12.9771689 33.1997384,13.0091324 C33.1357849,13.0410959 33.0718313,13.0730594 33.0078778,13.1369863 C33.0078778,13.1050228 33.0078778,13.0730594 33.0078778,13.0091324 C32.975901,12.8493151 32.8799707,12.7534247 32.7840403,12.6575342 C32.2724118,12.2100457 32.68811,10.8995434 32.5602029,10.8675799 C32.4322957,10.8675799 32.4322957,12.1780822 32.1764815,12.7853881 C32.1125279,12.913242 32.1125279,13.0410959 32.1445047,13.2009132 C32.1764815,13.3607306 32.2724118,13.456621 32.3683422,13.5525114 C32.4642725,13.6164384 32.5921796,13.6484018 32.7200868,13.6484018 C32.7840403,13.6484018 32.8160171,13.6164384 32.8479939,13.5844749 C32.8479939,13.5844749 32.8479939,13.5844749 32.8479939,13.6164384 C32.8799707,13.7442922 32.975901,13.8401826 33.0718313,13.9041096 C33.1997384,13.9680365 33.3276456,13.9680365 33.4555527,13.9360731 C33.5834598,13.9041096 33.7113669,13.8082192 33.7753205,13.7123288 C34.127065,13.1369863 35.1822988,12.4657534 35.1183452,12.369863 Z M35.3102059,11.0913242 C35.2462523,10.9954338 34.6067167,12.0502283 34.0311347,11.9223744 C33.9352044,11.890411 33.8072973,11.890411 33.6793901,11.9543379 C33.6154366,11.9863014 33.5834598,12.0182648 33.5195062,12.0502283 C33.5195062,12.0182648 33.5195062,11.9863014 33.5195062,11.9863014 C33.5195062,11.8584475 33.4555527,11.7305936 33.3596223,11.6347032 C32.975901,11.1552511 33.5195062,10.0684932 33.3915991,10.0365297 C33.2956688,10.0045662 33.1038081,11.1872146 32.7840403,11.6666667 C32.7200868,11.7625571 32.68811,11.890411 32.68811,12.0182648 C32.68811,12.1461187 32.7520635,12.2739726 32.8479939,12.369863 C32.9439242,12.4657534 33.0398545,12.4977169 33.1357849,12.4977169 C33.2317152,12.4977169 33.2956688,12.4657534 33.3596223,12.4018265 C33.3596223,12.43379 33.3596223,12.4977169 33.3915991,12.5616438 C33.4555527,12.6575342 33.5195062,12.7534247 33.6474134,12.7853881 C33.7433437,12.8173516 33.8712508,12.8173516 33.9991579,12.7534247 C34.127065,12.6894977 34.1910186,12.5936073 34.2549722,12.4977169 C34.5427632,11.9223744 35.4061362,11.1872146 35.3102059,11.0913242 Z M34.9584613,9.62100457 C34.8305542,9.52511416 34.4148561,10.5479452 33.9352044,10.803653 C33.839274,10.8675799 33.7433437,10.9315068 33.7113669,11.0593607 C33.6474134,11.1872146 33.6154366,11.3150685 33.6474134,11.4109589 C33.6474134,11.5068493 33.7113669,11.6027397 33.7753205,11.6666667 C33.8712508,11.7305936 33.9671811,11.6986301 34.0311347,11.6666667 C34.127065,11.6027397 34.2229954,11.5388128 34.2869489,11.4109589 C34.3509025,11.283105 34.3828793,11.1552511 34.3509025,11.0593607 C34.2869489,10.4840183 35.0224149,9.68493151 34.9584613,9.62100457 Z M26.0049631,36.2785388 L20.8567016,36.2785388 C20.5049571,36.2785388 20.1851893,36.2465753 19.8973983,36.1826484 C19.8973983,36.1826484 19.8973983,36.1826484 19.8973983,36.1826484 C20.7287945,37.4292237 22.0718192,38.3881279 23.414844,39.0273973 C23.6067047,40.1780822 23.8944957,41.2328767 23.9584492,41.2968037 C24.0543796,41.3926941 25.3654275,41.0091324 25.3973983,40.8812785 C25.4293811,40.7534247 24.853799,38.803653 24.853799,38.803653 C25.589265,37.6210046 25.7811256,36.9178082 26.0049631,36.2785388 Z M38.9235819,45.0365297 C37.612534,45.5479452 35.9497415,45.5799087 34.5427632,45.2283105 C31.377062,44.2374429 27.8596163,42.3835616 24.5020545,43.9178082 C21.1444926,42.3835616 17.6270469,44.2374429 14.4613458,45.2283105 C13.0863443,45.5799087 11.391575,45.5479452 10.080527,45.0365297 C10.0485502,45.0365297 10.0165735,45.0684932 10.0485502,45.1004566 C11.9032034,46.5388128 14.5252993,47.2100457 16.891581,46.347032 C19.1619323,45.6438356 21.0485623,43.2465753 23.7346118,44.2694064 C21.6241443,45.1004566 19.641584,46.6347032 18.1066986,48.0730594 L19.2258859,49 C20.6008874,47.369863 22.1677496,45.7716895 23.9584492,44.7808219 C24.2142635,44.652968 24.3421706,44.5890411 24.5020545,44.5570776 C24.6619384,44.5570776 24.8218223,44.6210046 25.0456597,44.7808219 C26.8043826,45.7716895 28.3712448,47.369863 29.7782231,49 L30.8974103,48.0730594 C29.3625249,46.6347032 27.3799646,45.1004566 25.2694972,44.2694064 C27.9555466,43.2465753 29.8741534,45.6438356 32.1125279,46.347032 C34.4788096,47.2100457 37.0689287,46.5388128 38.9555587,45.1004566 C38.9875355,45.0684932 38.9555587,45.0365297 38.9235819,45.0365297 Z M18.0747218,42.8630137 C14.7811136,42.0639269 13.853787,38.9634703 11.1037839,37.6210046 C11.0718072,37.6210046 11.0398304,37.652968 11.0718072,37.652968 C11.9351802,39.0913242 12.4148319,41.2648402 14.9090207,42.6392694 C14.9409975,42.6392694 14.9090207,42.6712329 14.9090207,42.6712329 C11.2956446,41.9680365 9.792736,42.9269406 6.01947604,41.2328767 C5.98749926,41.2328767 5.95552248,41.2648402 5.98749926,41.2968037 C7.23459365,43.086758 10.1764573,44.3333333 14.2055315,43.9817352 C15.6444866,43.8538813 16.6997203,43.2465753 18.1066986,42.9269406 C18.1066986,42.9269406 18.1066986,42.8630137 18.0747218,42.8630137 Z M11.1357607,40.9771689 C9.88866634,39.347032 10.2404109,35.8310502 7.39447755,32.6027397 C7.36250077,32.5707763 7.33051795,32.6027397 7.33051795,32.6347032 C7.87412924,35 7.71424534,37.6849315 9.18517719,39.6666667 C9.18517719,39.6986301 9.18517719,39.6986301 9.15320041,39.6986301 C6.2433135,37.3972603 3.20551946,36.6940639 1.89447151,34.8401826 C1.86249473,34.8082192 1.83051795,34.8401826 1.83051795,34.8721461 C2.15028574,37.2694064 6.78691874,41.0410959 11.0718072,41.0410959 C11.1357607,41.0091324 11.1677375,40.9771689 11.1357607,40.9771689 Z M6.75494196,36.5981735 C5.41191723,34.1050228 7.0107562,30.3013699 5.47587079,26.5936073 C5.44389401,26.5616438 5.41191723,26.5616438 5.41191723,26.5936073 C5.37994045,28.6073059 4.10086928,31.6438356 4.86831199,33.913242 C4.86831199,33.9452055 4.83633521,33.9452055 4.83633521,33.913242 C2.91772845,31.1004566 1.35086626,30.4931507 0.0717950899,27.9041096 C0.0398183106,27.8721461 0.00784153133,27.8721461 0.00784153133,27.9041096 C-0.0880888066,29.6621005 0.711330676,31.1004566 1.57470372,32.4109589 C2.98168201,34.2009132 4.77238165,35.6392694 6.69098841,36.5981735 C6.75494196,36.6621005 6.75494196,36.630137 6.75494196,36.5981735 Z M5.82761536,21.3835616 C5.82761536,21.3515982 5.76366181,21.3196347 5.76366181,21.3515982 C4.74040487,23.2694064 2.91772845,24.803653 2.85377489,27.3287671 C2.85377489,27.3607306 2.82179811,27.3607306 2.82179811,27.3287671 C2.50203032,25.3789954 0.839237793,23.173516 0.743307455,20.3287671 C0.743307455,20.2968037 0.679353897,20.2648402 0.679353897,20.3287671 C-0.695647613,24.0045662 1.2869127,27.5205479 3.36540336,30.3972603 C3.39738014,30.4292237 3.42935692,30.3972603 3.42935692,30.3652968 C3.33342658,27.3287671 5.98749926,25.0593607 5.82761536,21.3835616 Z M7.13866332,16.6210046 C6.17935994,17.9634703 3.97296216,18.9223744 3.17354268,20.8721461 C3.17354268,20.9041096 3.1415659,20.9041096 3.1415659,20.8721461 C3.4613337,18.6986301 2.62993743,16.173516 3.39738014,13.2648402 C3.39738014,13.2328767 3.36540336,13.2009132 3.33342658,13.2328767 C2.15028574,14.7031963 1.73458761,16.4292237 1.67063406,18.283105 C1.57470372,20.5525114 2.40609998,22.2146119 2.78982133,23.7808219 C2.78982133,23.8127854 2.85377489,23.8127854 2.85377489,23.7808219 C3.42935692,21.7671233 6.30726705,20.5205479 7.20261687,16.6849315 C7.23459365,16.6210046 7.17064009,16.5890411 7.13866332,16.6210046 Z M9.792736,12.0821918 C8.19389703,13.3287671 5.76366181,14.543379 5.22005656,15.4063927 C5.22005656,15.4383562 5.18807978,15.4063927 5.18807978,15.4063927 L5.79563858,12.5616438 C6.05145282,11.347032 6.27529027,10.196347 6.94680264,9.10958904 C6.97877942,9.07762557 6.91482586,9.0456621 6.91482586,9.07762557 C3.87703183,11.4748858 4.32470674,14.9589041 4.19679962,17.803653 C4.19679962,17.8356164 4.2287764,17.8356164 4.26075318,17.8356164 C6.05145282,15.8858447 8.96133974,14.7671233 9.85668956,12.1461187 C9.82471278,12.1141553 9.792736,12.0821918 9.792736,12.0821918 Z M12.0311045,7.73515982 C9.34506109,7.83105023 7.36250077,10.0684932 6.53110451,12.9452055 C6.53110451,12.9771689 6.56308129,12.9771689 6.56308129,12.9771689 C10.2723877,10.260274 10.0485502,9.10958904 12.0630873,7.83105023 C12.0950641,7.79908676 12.0950641,7.73515982 12.0311045,7.73515982 Z M42.9846329,41.2648402 C39.211373,42.9589041 37.7084643,42 34.0950883,42.7031963 C34.0631115,42.7031963 34.0631115,42.6712329 34.0950883,42.6712329 C36.6212538,41.3287671 37.0689287,39.1232877 37.9323018,37.6849315 C37.9642786,37.652968 37.9323018,37.6210046 37.900325,37.652968 C35.150322,38.9954338 34.2229954,42.0958904 30.9293871,42.8949772 C30.8974103,42.8949772 30.8974103,42.9589041 30.9293871,42.9589041 C32.3363654,43.2785388 33.3596223,43.8858447 34.8305542,44.0136986 C38.8596284,44.3652968 41.8014921,43.1187215 43.0485865,41.3287671 C43.0485865,41.2648402 43.0166097,41.2328767 42.9846329,41.2648402 Z M47.0776607,34.8082192 C45.7346359,36.6621005 42.7288187,37.3652968 39.8189318,39.6666667 C39.786955,39.6666667 39.786955,39.6666667 39.786955,39.6347032 C41.2578868,37.652968 41.0980029,34.9680365 41.6416082,32.6027397 C41.6416082,32.5707763 41.6096314,32.5388128 41.5776546,32.5707763 C38.7317213,35.7990868 39.0834658,39.283105 37.8363714,40.9452055 C37.8363714,40.9771689 37.8363714,41.0091324 37.8683482,41.0091324 C42.1532367,41.0091324 46.7898696,37.2374429 47.1096374,34.8401826 C47.1416142,34.8082192 47.1096374,34.8082192 47.0776607,34.8082192 Z M48.9962674,27.9360731 C48.9962674,27.9041096 48.9323139,27.8721461 48.9323139,27.9360731 C47.6532427,30.5251142 46.1183573,31.1004566 44.1997505,33.9452055 C44.1997505,33.9771689 44.1677737,33.9452055 44.1677737,33.9452055 C44.9352164,31.6757991 43.6881221,28.6392694 43.6241685,26.6255708 C43.6241685,26.5936073 43.5602149,26.5616438 43.5602149,26.6255708 C42.0253295,30.3333333 43.6561453,34.1369863 42.2811438,36.630137 C42.2811438,36.6621005 42.2811438,36.6940639 42.3131205,36.6621005 C44.2317273,35.7031963 46.0224269,34.2968037 47.4294052,32.4748858 C48.2927783,31.1324201 49.060221,29.6940639 48.9962674,27.9360731 Z M48.3247551,20.3607306 C48.2927783,20.3287671 48.2608015,20.3287671 48.2608015,20.3607306 C48.1968479,23.2054795 46.5340554,25.3789954 46.1823108,27.3607306 C46.1823108,27.3926941 46.1503341,27.3926941 46.1503341,27.3607306 C46.0863805,24.8356164 44.2637041,23.3013699 43.2404471,21.3835616 C43.2084704,21.3515982 43.1764936,21.3515982 43.1764936,21.4155251 C43.0166097,25.0913242 45.6706824,27.3607306 45.574752,30.4292237 C45.574752,30.4611872 45.6067288,30.4931507 45.6387056,30.4611872 C47.749173,27.5525114 49.6997566,24.0365297 48.3247551,20.3607306 Z M47.3014981,18.2511416 C47.2375446,16.3972603 46.8218464,14.6712329 45.6387056,13.2009132 C45.6067288,13.1689498 45.574752,13.2009132 45.574752,13.2328767 C46.3741715,16.1415525 45.5107985,18.6666667 45.8305663,20.8401826 C45.8305663,20.8721461 45.7985895,20.8721461 45.7985895,20.8401826 C44.99917,18.890411 42.824749,17.9315068 41.8334689,16.5890411 C41.8014921,16.5570776 41.7695153,16.5890411 41.7695153,16.6210046 C42.6648651,20.456621 45.5427753,21.6712329 46.1183573,23.716895 C46.1183573,23.7488584 46.1823108,23.7488584 46.1823108,23.716895 C46.598009,22.2146119 47.3974285,20.5525114 47.3014981,18.2511416 Z M42.1212599,9.07762557 C42.0892831,9.0456621 42.0573063,9.07762557 42.0892831,9.10958904 C42.7607955,10.196347 42.9846329,11.347032 43.2404471,12.5616438 L43.848006,15.4063927 C43.848006,15.4383562 43.8160292,15.4383562 43.8160292,15.4063927 C43.3044007,14.543379 40.8421887,13.3287671 39.2433497,12.0821918 C39.211373,12.0502283 39.1793962,12.0821918 39.1793962,12.1141553 C40.074746,14.7351598 42.9846329,15.8858447 44.7753326,17.803653 C44.8073093,17.8356164 44.8392861,17.803653 44.8392861,17.7716895 C44.711379,14.9589041 45.1590539,11.4748858 42.1212599,9.07762557 Z M36.9729984,7.73515982 C36.9410216,7.73515982 36.9090448,7.79908676 36.9410216,7.83105023 C38.9555587,9.10958904 38.7317213,10.2922374 42.4410277,12.9771689 C42.4730044,12.9771689 42.4730044,12.9771689 42.4730044,12.9452055 C41.6096314,10.0684932 39.6590479,7.83105023 36.9729984,7.73515982 Z" id="Fill-1"></path>
            </g>
        </g>
    </g>
</svg>