<?xml version="1.0" encoding="UTF-8"?>
<svg width="76px" height="76px" viewBox="0 0 76 76" version="1.1" xmlns="http://www.w3.org/2000/svg" xmlns:xlink="http://www.w3.org/1999/xlink">
    <!-- Generator: Sketch 64 (93537) - https://sketch.com -->
    <title>client_logos-airfrance</title>
    <desc>Created with Sketch.</desc>
    <defs>
        <path d="M0.5,13.84 C0.5,6.473 6.473,0.5 13.84,0.5 L62.16,0.5 C69.527,0.5 75.5,6.473 75.5,13.84 L75.5,62.16 C75.5,69.527 69.527,75.5 62.16,75.5 L13.84,75.5 C6.473,75.5 0.5,69.527 0.5,62.16 L0.5,13.84 Z" id="path-1"></path>
        <linearGradient x1="0%" y1="0%" x2="100%" y2="0%" id="linearGradient-3">
            <stop stop-color="#2B2B2B" offset="0%"></stop>
            <stop stop-color="#232323" offset="100%"></stop>
        </linearGradient>
        <path d="M0.5,13.84 C0.5,6.473 6.473,0.5 13.84,0.5 L62.16,0.5 C69.527,0.5 75.5,6.473 75.5,13.84 L75.5,62.16 C75.5,69.527 69.527,75.5 62.16,75.5 L13.84,75.5 C6.473,75.5 0.5,69.527 0.5,62.16 L0.5,13.84 Z" id="path-4"></path>
    </defs>
    <g id="Page-1" stroke="none" stroke-width="1" fill="none" fill-rule="evenodd">
        <g id="client_logos-airfrance">
            <g id="interface">
                <g id="Group">
                    <g id="a1000z-link">
                        <g id="a1000z-Clipped">
                            <mask id="mask-2" fill="white">
                                <use xlink:href="#path-1"></use>
                            </mask>
                            <g id="a1000z"></g>
                            <path d="M0.5,13.84 C0.5,6.473 6.473,0.5 13.84,0.5 L62.16,0.5 C69.527,0.5 75.5,6.473 75.5,13.84 L75.5,62.16 C75.5,69.527 69.527,75.5 62.16,75.5 L13.84,75.5 C6.473,75.5 0.5,69.527 0.5,62.16 L0.5,13.84 Z" id="a1000z" stroke="#000000" stroke-width="1.68" fill="#000000" fill-rule="nonzero" mask="url(#mask-2)"></path>
                        </g>
                    </g>
                    <g id="a1000z-link" fill="url(#linearGradient-3)" fill-rule="nonzero">
                        <path d="M0.5,13.84 C0.5,6.473 6.473,0.5 13.84,0.5 L62.16,0.5 C69.527,0.5 75.5,6.473 75.5,13.84 L75.5,62.16 C75.5,69.527 69.527,75.5 62.16,75.5 L13.84,75.5 C6.473,75.5 0.5,69.527 0.5,62.16 L0.5,13.84 Z" id="a1000z"></path>
                    </g>
                    <g id="a1000z-link" fill="#000000" fill-rule="nonzero">
                        <path d="M0.5,13.84 C0.5,6.473 6.473,0.5 13.84,0.5 L62.16,0.5 C69.527,0.5 75.5,6.473 75.5,13.84 L75.5,62.16 C75.5,69.527 69.527,75.5 62.16,75.5 L13.84,75.5 C6.473,75.5 0.5,69.527 0.5,62.16 L0.5,13.84 Z" id="a1000z"></path>
                    </g>
                    <g id="a1000z-link">
                        <g id="a1000z-Clipped">
                            <mask id="mask-5" fill="white">
                                <use xlink:href="#path-4"></use>
                            </mask>
                            <g id="a1000z"></g>
                            <path d="M0.5,13.84 C0.5,6.473 6.473,0.5 13.84,0.5 L62.16,0.5 C69.527,0.5 75.5,6.473 75.5,13.84 L75.5,62.16 C75.5,69.527 69.527,75.5 62.16,75.5 L13.84,75.5 C6.473,75.5 0.5,69.527 0.5,62.16 L0.5,13.84 Z" id="a1000z" stroke-opacity="0.00999999978" stroke="#FFFFFF" stroke-width="1.68" fill="#000000" fill-rule="nonzero" mask="url(#mask-5)"></path>
                        </g>
                    </g>
                </g>
            </g>
            <g id="air-france-vector-logo" transform="translate(8.000000, 32.000000)" fill="#FFFFFF" fill-rule="nonzero">
                <g id="Group">
                    <path d="M56.0604027,8.01344538 L52.9060403,12.5848739 C52.4899329,13.189916 51.8187919,13.7680672 51,13.8218487 L51,13.9563025 L54.5033557,13.9563025 C55.4295302,13.9563025 56.114094,13.3512605 56.5704698,12.6789916 L59.8053691,8 L56.0604027,8 L56.0604027,8.01344538 Z" id="Path"></path>
                    <path d="M34.6442953,3.33445378 L36.3758389,3.33445378 L35.4765101,1.66722689 L34.6442953,3.33445378 Z M37.6912752,5.6605042 L37.0067114,4.46386555 L34.0402685,4.46386555 L33.4228188,5.6605042 L31.9463087,5.6605042 L34.8993289,0.21512605 L36.2416107,0.21512605 L39.5838926,5.6605042 L37.6912752,5.6605042 Z M2.83221477,3.33445378 L4.60402685,3.33445378 L3.67785235,1.66722689 L2.83221477,3.33445378 Z M5.97315436,5.6605042 L5.27516779,4.46386555 L2.22818792,4.46386555 L1.59731544,5.6605042 L0.0805369128,5.6605042 L3.11409396,0.21512605 L4.4966443,0.21512605 L7.93288591,5.6605042 L5.97315436,5.6605042 Z M14.8187919,2.71596639 C15.4496644,2.71596639 15.7449664,2.39327731 15.7449664,2.0302521 C15.7449664,1.66722689 15.4765101,1.37142857 14.8187919,1.37142857 L13.1275168,1.37142857 L13.1275168,2.71596639 L14.8187919,2.71596639 Z M16.0805369,3.61680672 L18.2818792,5.6605042 L16.590604,5.6605042 C16.2147651,5.6605042 15.9731544,5.5394958 15.7718121,5.3512605 L14.2684564,3.89915966 C14.2416107,3.87226891 14.2013423,3.85882353 14.1342282,3.85882353 L13.114094,3.85882353 L13.114094,5.6605042 L11.5302013,5.6605042 L11.5302013,0.201680672 L14.966443,0.201680672 C16.7516779,0.201680672 17.5033557,1.00840336 17.5033557,1.89579832 C17.5167785,2.93109244 16.590604,3.42857143 16.0805369,3.61680672 M28.442953,2.71596639 C29.0738255,2.71596639 29.3691275,2.39327731 29.3691275,2.0302521 C29.3691275,1.66722689 29.1006711,1.37142857 28.442953,1.37142857 L26.7516779,1.37142857 L26.7516779,2.71596639 L28.442953,2.71596639 Z M29.7181208,3.61680672 L31.9194631,5.6605042 L30.2281879,5.6605042 C29.852349,5.6605042 29.6107383,5.5394958 29.409396,5.3512605 L27.9060403,3.89915966 C27.8791946,3.87226891 27.8389262,3.85882353 27.7718121,3.85882353 L26.7516779,3.85882353 L26.7516779,5.6605042 L25.1677852,5.6605042 L25.1677852,0.201680672 L28.6040268,0.201680672 C30.3892617,0.201680672 31.1409396,1.00840336 31.1409396,1.89579832 C31.1543624,2.93109244 30.2281879,3.42857143 29.7181208,3.61680672 M54.3624161,5.6605042 L54.3624161,0.201680672 L59.8791946,0.201680672 L59.8791946,1.37142857 L55.9597315,1.37142857 L55.9597315,2.31260504 L59.8255034,2.31260504 L59.8255034,3.48235294 L55.9597315,3.48235294 L55.9597315,4.47731092 L59.8657718,4.47731092 L59.8657718,5.64705882 L54.3624161,5.64705882 L54.3624161,5.6605042 Z M18.885906,5.6605042 L18.885906,0.201680672 L24.2013423,0.201680672 L24.2013423,1.37142857 L20.4832215,1.37142857 L20.4832215,2.72941176 L24.1208054,2.72941176 L24.1208054,3.89915966 L20.4832215,3.89915966 L20.4832215,5.6605042 L18.885906,5.6605042 Z M53.3959732,1.97647059 C52.6711409,1.62689076 51.8657718,1.33109244 50.7919463,1.33109244 C49.5167785,1.33109244 48.5637584,1.98991597 48.5637584,2.91764706 C48.5637584,3.85882353 49.5302013,4.53109244 50.7919463,4.53109244 C51.8255034,4.53109244 52.6442953,4.26218487 53.4496644,3.80504202 L53.4496644,5.14957983 C52.738255,5.49915966 51.7852349,5.76806723 50.7248322,5.76806723 C48.5503356,5.76806723 46.8322148,4.65210084 46.8322148,2.91764706 C46.8322148,1.21008403 48.5771812,0.107563025 50.7114094,0.107563025 C51.7181208,0.107563025 52.6308725,0.295798319 53.3959732,0.605042017 L53.3959732,1.97647059 Z M45.1006711,5.6605042 L41.2751678,2.42016807 L41.2751678,5.6605042 L39.9328859,5.6605042 L39.9328859,0.201680672 L41.0738255,0.201680672 L44.8456376,3.38823529 L44.8456376,0.201680672 L46.1879195,0.201680672 L46.1879195,5.6605042 L45.1006711,5.6605042 Z M8.45637584,0.21512605 L10.0402685,0.21512605 L10.0402685,5.67394958 L8.45637584,5.67394958 L8.45637584,0.21512605 Z" id="Shape"></path>
                </g>
            </g>
        </g>
    </g>
</svg>