<?xml version="1.0" encoding="UTF-8"?>
<svg width="76px" height="76px" viewBox="0 0 76 76" version="1.1" xmlns="http://www.w3.org/2000/svg" xmlns:xlink="http://www.w3.org/1999/xlink">
    <!-- Generator: Sketch 64 (93537) - https://sketch.com -->
    <title>client_logos-un</title>
    <desc>Created with Sketch.</desc>
    <defs>
        <path d="M0.5,13.84 C0.5,6.473 6.473,0.5 13.84,0.5 L62.16,0.5 C69.527,0.5 75.5,6.473 75.5,13.84 L75.5,62.16 C75.5,69.527 69.527,75.5 62.16,75.5 L13.84,75.5 C6.473,75.5 0.5,69.527 0.5,62.16 L0.5,13.84 Z" id="path-1"></path>
        <linearGradient x1="0%" y1="0%" x2="100%" y2="0%" id="linearGradient-3">
            <stop stop-color="#2B2B2B" offset="0%"></stop>
            <stop stop-color="#232323" offset="100%"></stop>
        </linearGradient>
        <path d="M0.5,13.84 C0.5,6.473 6.473,0.5 13.84,0.5 L62.16,0.5 C69.527,0.5 75.5,6.473 75.5,13.84 L75.5,62.16 C75.5,69.527 69.527,75.5 62.16,75.5 L13.84,75.5 C6.473,75.5 0.5,69.527 0.5,62.16 L0.5,13.84 Z" id="path-4"></path>
    </defs>
    <g id="Page-1" stroke="none" stroke-width="1" fill="none" fill-rule="evenodd">
        <g id="client_logos-un">
            <g id="interface">
                <g id="Group">
                    <g id="a1000z-link">
                        <g id="a1000z-Clipped">
                            <mask id="mask-2" fill="white">
                                <use xlink:href="#path-1"></use>
                            </mask>
                            <g id="a1000z"></g>
                            <path d="M0.5,13.84 C0.5,6.473 6.473,0.5 13.84,0.5 L62.16,0.5 C69.527,0.5 75.5,6.473 75.5,13.84 L75.5,62.16 C75.5,69.527 69.527,75.5 62.16,75.5 L13.84,75.5 C6.473,75.5 0.5,69.527 0.5,62.16 L0.5,13.84 Z" id="a1000z" stroke="#000000" stroke-width="1.68" fill="#000000" fill-rule="nonzero" mask="url(#mask-2)"></path>
                        </g>
                    </g>
                    <g id="a1000z-link" fill="url(#linearGradient-3)" fill-rule="nonzero">
                        <path d="M0.5,13.84 C0.5,6.473 6.473,0.5 13.84,0.5 L62.16,0.5 C69.527,0.5 75.5,6.473 75.5,13.84 L75.5,62.16 C75.5,69.527 69.527,75.5 62.16,75.5 L13.84,75.5 C6.473,75.5 0.5,69.527 0.5,62.16 L0.5,13.84 Z" id="a1000z"></path>
                    </g>
                    <g id="a1000z-link" fill="#000000" fill-rule="nonzero">
                        <path d="M0.5,13.84 C0.5,6.473 6.473,0.5 13.84,0.5 L62.16,0.5 C69.527,0.5 75.5,6.473 75.5,13.84 L75.5,62.16 C75.5,69.527 69.527,75.5 62.16,75.5 L13.84,75.5 C6.473,75.5 0.5,69.527 0.5,62.16 L0.5,13.84 Z" id="a1000z"></path>
                    </g>
                    <g id="a1000z-link">
                        <g id="a1000z-Clipped">
                            <mask id="mask-5" fill="white">
                                <use xlink:href="#path-4"></use>
                            </mask>
                            <g id="a1000z"></g>
                            <path d="M0.5,13.84 C0.5,6.473 6.473,0.5 13.84,0.5 L62.16,0.5 C69.527,0.5 75.5,6.473 75.5,13.84 L75.5,62.16 C75.5,69.527 69.527,75.5 62.16,75.5 L13.84,75.5 C6.473,75.5 0.5,69.527 0.5,62.16 L0.5,13.84 Z" id="a1000z" stroke-opacity="0.00999999978" stroke="#FFFFFF" stroke-width="1.68" fill="#000000" fill-rule="nonzero" mask="url(#mask-5)"></path>
                        </g>
                    </g>
                </g>
            </g>
            <g id="united-nations-system-staff-college-vector-logo" transform="translate(9.000000, 16.000000)">
                <polygon id="Path" fill="#FFFFFF" fill-rule="nonzero" points="48 30.0361538 49 30.0602564 48.5714286 29.9397436"></polygon>
                <polygon id="Path" stroke="#FFFFFF" stroke-width="0.09475505" points="49 30.0602564 48.5714286 29.9397436 48 30.0361538"></polygon>
                <g id="Group" transform="translate(9.000000, 0.000000)" stroke="#FFFFFF">
                    <path d="M19.8343195,0.192941176 C30.7928994,0.120588235 39.8343195,9.18882353 39.8816568,20.3552941 C39.9526627,31.5217647 31.0059172,40.7105882 20.0473373,40.782989 C9.0887574,40.8070588 0.118343195,31.7147059 0.0471488056,20.5482353 C-6.9388939e-18,9.38176471 8.87573964,0.241176471 19.8343195,0.192941176 Z" id="Path" stroke-width="0.8614"></path>
                    <path d="M19.8816568,4.12405773 C28.7100592,4.1 36,11.3594118 36.0237272,20.3794118 C36.0473373,29.3752941 28.8994083,36.7311765 20.0710059,36.7553538 C11.2426036,36.7794118 4.02366864,29.4958824 3.9999408,20.5 C3.97633136,11.5041176 11.0532544,4.14823529 19.8816568,4.12405773 Z" id="Path" stroke-width="0.8614"></path>
                    <path d="M19.9053254,8.12756803 C26.556213,8.10352941 32.0710059,13.6023529 32.0946746,20.3794118 C32.1420118,27.2047059 26.6982249,32.7758824 20.0473373,32.8 C13.3964497,32.8482353 7.92899408,27.3011765 7.88157924,20.4758824 C7.85798817,13.6988235 13.2544379,8.15176471 19.9053254,8.12756803 Z" id="Path" stroke-width="0.8614"></path>
                    <path d="M20.0236686,11.9864706 C24.5680473,11.9864706 28.3313609,15.7247059 28.3313609,20.4517647 C28.3313609,25.1305882 24.5680473,28.9170588 20.0236686,28.9170588 C15.4556213,28.9170588 11.7159763,25.1305882 11.7159763,20.4517647 C11.7159763,15.7247059 15.4556213,11.9864706 20.0236686,11.9864706 Z" id="Path" stroke-width="0.8614"></path>
                    <path d="M19.9053254,15.9417647 C22.3668639,15.9176471 24.4260355,17.8952941 24.4260355,20.4035294 C24.4497041,22.9117647 22.4615385,24.9376471 20,24.9858824 C17.5384615,24.9858824 15.5739645,22.9358824 15.5502959,20.4517647 C15.5739645,17.9435294 17.4674556,15.9417647 19.9053254,15.9417647 Z" id="Path" stroke-width="0.491"></path>
                </g>
                <path d="M14.7548845,34.8718861 L25.7673179,23.4667853 M32.1379515,17.3143535 L42.937241,5.98220641 M43.0082889,34.9205219 L32.1142688,23.831554 M14.7312019,6.05516014 L25.69627,17.5575326 M33.6062759,20.4513642 L49,20.4756821 M9,20.5729537 L24.7015986,20.5243179 M28.9881587,25.0231317 L29.0592066,41 M29.0118413,0 L29.0118413,15.9768683" id="Shape" stroke="#FFFFFF" stroke-width="0.8614"></path>
                <polygon id="Path" fill="#FFFFFF" fill-rule="nonzero" points="44 18 42.5666667 15.3296703 41 15"></polygon>
                <g id="Group" transform="translate(25.000000, 6.000000)" fill="#FFFFFF" fill-rule="nonzero">
                    <path d="M17.856,9.73617021 C17.688,9.29148936 18.24,8.72978723 17.328,8.26170213 C17.328,8.26170213 14.208,7.58297872 16.584,8.70638298 C16.584,9.26808511 17.328,9.71276596 17.856,10.1808511 L17.856,9.73617021 L17.856,9.73617021 Z" id="Path"></path>
                    <path d="M12.84,10.8829787 L13.848,10.8829787 C14.112,10.6723404 14.352,10.3446809 14.424,9.82978723 C14.352,9.40851064 14.352,8.87021277 14.592,8.77659574 L13.68,8.87021277 L12.432,10.6723404 L12.84,10.8829787 Z" id="Path"></path>
                    <path d="M13.248,10.0404255 L14.304,9.57234043 C14.52,9.57234043 14.616,9.57234043 14.928,10.0404255 C15.36,9.57234043 14.928,8.54255319 14.928,7.93404255 L13.776,7.93404255 L12.936,10.0404255 L13.248,10.0404255 Z" id="Path"></path>
                    <path d="M0.648,7.65319149 C1.248,7.65319149 1.752,7.65319149 2.352,6.45957447 C2.208,6.06170213 1.704,5.52340426 1.248,5.52340426 C0.648,5.52340426 0.648,5.52340426 0.192,7.62978723 L0.648,7.62978723 L0.648,7.65319149 Z" id="Path"></path>
                    <path d="M9.816,2.22340426 L10.176,2.03617021 C9.816,1.3106383 8.976,0.725531915 8.064,0.117021277 C7.776,1.3106383 8.616,1.42765957 9.36,2.22340426 L9.816,2.22340426 Z" id="Path"></path>
                </g>
                <polygon id="Path" fill="#FFFFFF" fill-rule="nonzero" points="29 4.03333333 29.1875 3.13333333 29.69375 2.76666667 30.33125 2.76666667 30.6125 2.23333333 30.96875 2.03333333 31.8875 2 32 2.83333333 30.21875 3.56666667 30.6125 5 30.05 4.86666667"></polygon>
                <polygon id="Path" fill="#FFFFFF" fill-rule="nonzero" points="36.6200942 11.0072072 36.9120879 11.1711712 37.8367347 12.8810811 39.8320251 15.2 39.6860283 15.7621622 40.0753532 15.9261261 40.7566719 18.0342342 41 18.2216216 40.9026688 19.4630631 40.3186813 20.3765766 39.978022 19.9783784 40.0753532 19.2990991 39.5643642 19.7675676 38.8830455 19.8144144 38.7370487 20.3765766 38.2503925 20.7045045 38.1043956 21.5711712 38.7370487 22.5783784 39.1507064 22.8594595 39.5400314 22.6954955 40.0023548 22.836036 40.0023548 23 39.5400314 23.1405405 39.6130298 23.6558559 37.2770801 24.4522523 36.9120879 24.1711712 36.3767661 25.5531532 36.9850863 25.9513514 36.4010989 27.8486486 35.4277865 28.4108108 33.5541601 27.9891892 35.0384615 28.5513514 35.8657771 28.5513514 36.9850863 27.5675676 37.3744113 28.4810811 37.3014129 29.6522523 37.0094192 29.9567568 37.0580848 30.5423423 37.9827316 31.409009 37.4474097 32.4630631 37.4960754 33.2126126 36.5470958 34.5477477 35.8901099 35.6486486 34.4544741 36 33.0188383 35.6486486 31.899529 34.7585586 31.4615385 34.3603604 31.4372057 33.4702703 30.4882261 32.8378378 30.0259027 32.0882883 29.1255887 32.1117117 28.4929356 32.2756757 26.9599686 32.2288288 25.6459969 30.5891892 26.6436421 28.9261261 27.8359498 28.2234234 27.4466248 27.7783784 27.6899529 27.1927928 28.1279435 27.1225225 28.2009419 26.209009 27.8359498 26.045045 27.933281 25.763964 28.2982732 25.6234234 28.1279435 25.436036 27.3006279 24.5927928 27.5196232 24.0306306 28.1522763 24.218018 27.7386185 24.5693694 28.1279435 24.827027 28.7362637 24.827027 29.1742543 23.9369369 29.9285714 23.1405405 30.6098901 23.2108108 30.9262166 22.554955 30.755887 22.1099099 31.0478807 21.8990991 30.2205651 20.9621622 30.4882261 19.9081081 29.0525903 18.9009009 28.6632653 18.9711712 28.3469388 18.6432432 28.2982732 18.2216216 28.44427 17.8234234 28.0549451 17.8234234 28.0549451 18.3153153 28.0792779 18.7369369 27.933281 19.0882883 26.7653061 19.4162162 26.400314 20.0954955 26.4976452 20.3765766 27.3006279 20.3765766 27.3006279 20.6810811 26.1083203 20.6342342 26.4733124 20.9153153 26.400314 21.2666667 26.4976452 21.8288288 26.2543171 22.0162162 26.2786499 22.5081081 26.6923077 22.5081081 26.6193093 22.1333333 27.3006279 21.1261261 27.6656201 21.1261261 27.7872841 21.4072072 28.4199372 21.7117117 28.5172684 22.2972973 27.3979592 23.7963964 26.6923077 23.8666667 25.8649922 24.3585586 25.5973312 23.4216216 25.9866562 22.9765766 25.5 22.7189189 25.2810047 23.2810811 25.0863422 23.609009 24.0156986 24.6162162 23.6993721 24.218018 22.5313972 23.5153153 22.3610675 23.3045045 21.144427 22.9297297 20.8524333 23.1405405 20.1954474 23.2342342 19.7574568 23.2108108 19.9764521 23.609009 20.0981162 24.8036036 20.0981162 24.9675676 20.0981162 25.763964 19.8304553 25.763964 19.1978022 23.445045 19.0031397 23.1405405 19.2951334 22.7891892 19.4411303 22.1099099 19.9521193 22.3441441 20.122449 21.8522523 19.8061224 21.618018 18.8084772 21.8990991 18.8084772 22.4144144 18.1028257 22.5081081 18.1514914 23.3513514 18.8084772 24.3585586 19.4411303 25.7405405 19.733124 25.9045045 19.3681319 26.3261261 19.7087912 28.7621622 20.2684458 29.0666667 20.3171115 29.581982 21.8257457 30.6126126 21.3147567 31.6900901 20.0251177 31.9009009 18.6868132 32.2522523 17.9568289 31.8072072 16.8131868 32.0414414 16.0588697 31.1747748 14.6232339 30.1675676 14.2339089 30.0972973 11.9952904 28.4810811 11.5572998 28.4108108 11.0463108 28.1531532 11.1923077 28.645045 10.9976452 28.9963964 10.4866562 28.645045 10 27.0288288 10.0973312 26.209009 10.5596546 26.209009 10.7299843 25.763964 11.0949765 25.6936937 11.1679749 26.1153153 11.6546311 26.0918919 11.4599686 25.7405405 12.0682889 25.6936937 12.311617 25.9045045 13.1389325 25.8342342 14.4529042 26.0216216 14.7205651 25.6 14.7935636 24.8036036 15.4505495 23.4216216 16.0588697 22.7891892 16.3751962 22.7189189 16.5698587 22.7189189 16.9348509 23.2342342 17.6161695 23.4216216 17.9568289 21.5009009 18.4434851 21.0324324 18.83281 19.4162162 19.4411303 18.8072072 20.0494505 18.6900901 20.0494505 18.3153153 21.5094192 17.5189189 21.9960754 17.7063063 22.2637363 17.5189189 23.1640502 17.5189189 23.8697017 18.1045045 24.6970173 18.2918919 25.5973312 18.0108108 27.3006279 16.8630631 27.3979592 17.1441441 28.7605965 16.7927928 29.3932496 17.0738739 30.8532182 16.6288288 30.4882261 17.4252252 31.5345369 17.8702703 31.5345369 17.4486486 32.1185243 16.7927928 32.3618524 16.9333333 32.7755102 16.6522523 32.1915228 16.6288288 31.8021978 16.4414414 31.9481947 16.0666667 32.6295133 16.2774775 33.0918367 15.7621622 33.7974882 15.9261261 33.9434851 15.5045045 34.4544741 15.2702703 34.6491366 15.7621622 35.7927786 16.581982 36.3037677 16.7693694 36.8634223 17.3081081 37.6177394 18.1747748 37.9827316 18.245045 38.6640502 17.9405405 39.1020408 18.3855856 38.7857143 19.3225225 39.5643642 19.2990991 40.0510204 18.0810811 39.467033 17.027027 38.6640502 16.3477477 39.0290424 15.5513514 38.8100471 14.8252252 37.7394035 14.4738739 37.7394035 14.0522523 36.5470958 12.3189189 34.6491366 11.381982 34.4301413 10.445045 34.9897959 10.2342342 35.1357928 10.6558559 35.11146 11.0774775 35.3304553 11.218018 35.4277865 10.9135135 35.2574568 10.0936937 35.4277865 10 36.4010989 11.0072072"></polygon>
                <path d="M35,5.77211796 L35.1282051,6.37533512 L36.3333333,8.5227882 L36.2307692,8.78820375 L36.5641026,9.36729223 L37.6410256,9.36729223 L38.025641,9.9463807 L38.1538462,10.8150134 L38.7179487,11.4182306 L39.1282051,11.4182306 L39.7692308,12.0938338 L41.5128205,12.9624665 L42.3589744,14 L43.4615385,13.9276139 L44,12.9383378 L43.5128205,11.9731903 L43.0512821,11.6836461 L42.8974359,11.2975871 L41.8974359,10.1876676 L40.4102564,8.64343164 L40.4358974,7.60589812 L39.7435897,7.2922252 C39.7435897,7.14745308 39.4102564,6.61662198 39.2564103,6.61662198 L38.2307692,5.86863271 L38.6410256,5.86863271 L38.5641026,5.26541555 L37.6410256,5 L37.4102564,5.31367292 L37.5641026,5.67560322 L36.5897436,5.67560322 L35.4102564,5.45844504 L35,5.77211796 Z" id="Path" fill="#FFFFFF" fill-rule="nonzero"></path>
                <polygon id="Path" fill="#FFFFFF" fill-rule="nonzero" points="39.3069307 29 40.1683168 29.1926606 41 31.4770642 40.3465347 32 39.5742574 31.6697248 39.009901 31.4220183 38.5643564 30.4036697 38 30.0458716 38.1485149 29.6880734 38.6534653 29.7155963"></polygon>
                <g id="Group" transform="translate(0.000000, 3.000000)" fill="#FFFFFF" fill-rule="nonzero">
                    <path d="M24.2309623,43.9053763 L25.7096234,43.8344086 C26.7589958,42.888172 27.6891213,41.8709677 29.2154812,41.7763441 C30.7656904,42.2021505 31.576569,42.9591398 32.7451883,43.7870968 L34.0807531,43.7870968 L30.0263598,41.6817204 C35.4640167,41.6107527 41.951046,45.6322581 46.9594142,41.7526882 C41.1640167,42.8408602 34.9154812,38.6301075 29.0008368,41.4451613 C22.8,38.3225806 16.5753138,43.2430108 10.4698745,41.6107527 C12.4016736,43.4322581 15.9313808,44.0236559 18.9125523,43.8817204 C22.2991632,43.716129 24.8748954,41.0430108 28.11841,41.5634409 C27.1167364,42.4623656 25.3041841,42.9354839 24.1355649,43.8817204 L24.2309623,43.9053763 Z" id="Path"></path>
                    <path d="M42.523431,40.427957 C46.1008368,40.5698925 48.8435146,38.8430108 50.9899582,36.4064516 C51.2046025,36.027957 51.4192469,35.7677419 51.6577406,35.4129032 C51.1569038,35.7913978 50.5606695,36.1225806 50.0121339,36.572043 C47.0548117,37.683871 43.6920502,38.3462366 40.6631799,39.2215054 C43.0958159,37.6365591 44.3598326,34.5376344 45.4569038,31.4860215 C45.4807531,31.344086 45.4807531,31.2258065 45.4807531,31.1784946 C42.3087866,33.8752688 41.3548117,37.3290323 38.4213389,39.7655914 L42.523431,40.427957 Z" id="Path"></path>
                    <path d="M13.4748954,40.711828 C15.0728033,40.8301075 16.5514644,40.5698925 18.1016736,40.1913978 C18.4832636,40.1677419 18.8648536,39.9548387 19.2225941,40.0258065 C16.6230126,37.5182796 15.3828452,34.111828 12.0677824,31.5333333 C12.7355649,34.7505376 14.0711297,38.0387097 17.0046025,39.2451613 C17.0046025,39.2688172 17.0761506,39.3397849 17.0046025,39.4580645 C13.3317992,38.1569892 8.91966527,38.0860215 5.98619247,35.8860215 C7.87029289,38.3225806 10.183682,40.2860215 13.4748954,40.711828" id="Path"></path>
                    <path d="M44.9799163,37.1634409 L47.7702929,36.4537634 C51.3715481,35.1526882 53.8757322,32.1956989 54.9966527,28.5763441 C54.9728033,28.3397849 55.139749,28.1268817 55.0682008,28.0086022 C52.7786611,30.9419355 49.9405858,32.3849462 47.5556485,34.9397849 C47.1979079,35.3655914 46.7447699,35.6967742 46.3870293,36.0516129 C47.7941423,33.544086 49.1535565,29.6408602 48.8196653,26.2107527 C46.625523,29.1204301 45.7192469,33.283871 44.9083682,37.0924731 L44.9799163,37.1634409 Z" id="Path"></path>
                    <path d="M12.4732218,37.1634409 L12.4970711,37.1634409 C11.9008368,35.4365591 12.1870293,33.5204301 11.2569038,31.6752688 C10.4937238,29.5698925 9.39665272,27.9376344 8.4665272,26.2580645 C8.49037657,29.3806452 8.96736402,33.3311828 10.8276151,35.7204301 C7.82259414,33.1182796 4.43598326,31.2021505 2.0748954,28.055914 C3.02887029,31.4860215 4.55523013,34.1591398 7.5125523,35.7913978 C9.22970711,36.3591398 10.9945607,36.5010753 12.4732218,37.1634409" id="Path"></path>
                    <path d="M49.892887,31.3913978 C53.0648536,28.4107527 56.4514644,25.9268817 56.809205,21.1010753 L56.809205,20.7225806 L51.0853556,28.6946237 C51.4669456,26.2344086 51.4430962,23.5376344 50.6322176,20.9591398 C50.6322176,20.5806452 50.5368201,20.2258065 50.465272,19.9419355 C48.9150628,23.655914 50.274477,27.6064516 49.892887,31.3913978" id="Path"></path>
                    <path d="M7.75104603,31.4623656 C6.70167364,27.5827957 8.6334728,23.6795699 6.77322176,19.8709677 C5.74769874,22.5677419 5.89079498,25.572043 6.20083682,28.4580645 C4.81757322,26.7784946 3.17196653,24.6021505 1.50251046,22.6387097 C1.1209205,21.9290323 0.739330544,21.4086022 0.405439331,20.6516129 C0.691631799,23.9870968 2.09874477,27.1333333 4.69832636,29.0494624 C5.84309623,29.7827957 6.94016736,30.8 7.75104603,31.4623656" id="Path"></path>
                    <path d="M52.9933054,24.5784946 C55.3782427,21.6451613 57.6916318,16.8666667 56.6661088,12.372043 C56.0221757,15.8494624 53.7803347,18.7827957 53.5656904,22.5677419 C53.541841,22.5677419 53.4225941,22.5913978 53.3987448,22.5677419 C53.541841,19.7053763 51.8008368,17.0086022 50.6799163,14.7849462 C50.0598326,18.0494624 52.1824268,21.4086022 52.9933054,24.5784946" id="Path"></path>
                    <path d="M4.43598326,24.5784946 C4.43598326,21.1483871 7.44100418,18.3569892 6.70167364,14.5956989 C5.38995816,16.6537634 3.98284519,18.9956989 3.76820084,21.9763441 L3.6251046,21.9763441 C3.10041841,18.6172043 1.35941423,15.9913978 0.310041841,12.7978495 C-0.333891213,15.2107527 0.381589958,18.0258065 1.47866109,20.2494624 C2.52803347,21.7634409 3.48200837,23.088172 4.48368201,24.6258065 L4.43598326,24.5784946 Z" id="Path"></path>
                    <path d="M53.7803347,18.0021505 C55.7121339,13.9333333 55.6167364,8.51612903 52.9217573,5.15698925 C54.0188285,8.37419355 52.6355649,11.7333333 53.4941423,15.0215054 C53.4941423,15.1634409 53.4225941,15.1870968 53.3271967,15.1634409 C52.6832636,12.6086022 50.6799163,11.1892473 48.676569,9.17849462 C49.7020921,12.8924731 52.1108787,14.8086022 53.8280335,18.0731183 L53.7803347,18.0021505 Z" id="Path"></path>
                    <path d="M3.458159,18.7591398 C4.79372385,15.1870968 7.58410042,12.8451613 8.68117155,8.98924731 C8.15648536,9.36774194 7.67949791,9.84086022 7.20251046,10.3849462 C5.50920502,11.6150538 4.34058577,13.2473118 3.67280335,15.2107527 C3.95899582,12.7268817 3.81589958,10.0537634 3.67280335,7.35698925 C3.81589958,6.64731183 3.81589958,6.19784946 4.05439331,5.51182796 C2.12259414,7.99569892 1.57405858,11.9225806 2.45648536,15.2107527 C2.7665272,16.4408602 3.05271967,17.6236559 3.458159,18.7827957 L3.458159,18.7591398 L3.458159,18.7591398 Z" id="Path"></path>
                    <path d="M52.3493724,11.1892473 C52.7786611,7.54623656 52.0393305,3.59569892 49.0343096,1.32473118 C50.1313808,3.50107527 50.6322176,6.05591398 51.0853556,8.4688172 C49.439749,6.71827957 47.4841004,5.84301075 45.6953975,4.0688172 C46.8640167,7.12043011 50.0359833,9.10752688 52.3732218,11.283871 L52.3732218,11.1892473 L52.3493724,11.1892473 Z" id="Path"></path>
                    <path d="M5.0083682,11.4731183 C5.60460251,10.5741935 6.51087866,9.72258065 7.53640167,9.1311828 C9.22970711,7.68817204 10.9230126,5.93763441 11.4953975,3.80860215 C10.0405858,5.70107527 7.87029289,6.2688172 6.34393305,8.32688172 C6.32008368,8.32688172 6.20083682,8.32688172 6.17698745,8.23225806 C6.17698745,7.59354839 6.32008368,6.83655914 6.53472803,6.05591398 C6.96401674,4.5655914 7.17866109,2.93333333 7.84644351,1.65591398 C6.53472803,2.60215054 5.62845188,4.11612903 4.96066946,5.7483871 C4.38828452,7.73548387 5.24686192,9.67526882 5.03221757,11.5677419 L5.03221757,11.4731183 L5.0083682,11.4731183 Z" id="Path"></path>
                    <path d="M49.7497908,6.2688172 C49.2966527,3.14623656 47.0309623,1.58494624 44.6221757,0.496774194 C45.4330544,2.69677419 47.5079498,4.75483871 49.7736402,6.2688172 L49.7497908,6.2688172 Z" id="Path"></path>
                    <path d="M7.39330544,6.19784946 C9.73054393,4.80215054 11.1615063,2.31827957 12.9979079,0.189247312 C10.9945607,0.922580645 8.80041841,2.5311828 7.84644351,4.63655914 C7.63179916,5.22795699 7.41715481,5.65376344 7.27405858,6.22150538 C7.29790795,6.19784946 7.36945607,6.2688172 7.39330544,6.19784946" id="Path"></path>
                </g>
            </g>
        </g>
    </g>
</svg>