<svg xmlns="http://www.w3.org/2000/svg" viewBox="0 0 300 200"><path d="M 37.5 62 C 58.211 62 75 78.789 75 99.5 C 75 120.211 58.211 137 37.5 137 C 16.789 137 0 120.211 0 99.5 C 0 78.789 16.789 62 37.5 62 Z" fill="#CCC"></path><path d="M 150.5 62 C 171.211 62 188 78.789 188 99.5 C 188 120.211 171.211 137 150.5 137 C 129.789 137 113 120.211 113 99.5 C 113 78.789 129.789 62 150.5 62 Z" fill="#CCC"></path><path d="M 262.5 62 C 283.211 62 300 78.789 300 99.5 C 300 120.211 283.211 137 262.5 137 C 241.789 137 225 120.211 225 99.5 C 225 78.789 241.789 62 262.5 62 Z" fill="#CCC"></path></svg>