   <svg xmlns="http://www.w3.org/2000/svg" viewBox="0 0 200 200">
      <path d="M 50 0 C 77.614 0 100 22.386 100 50 C 100 77.614 77.614 100 50 100 C 22.386 100 0 77.614 0 50 C 0 22.386 22.386 0 50 0 Z M 150 0 C 177.614 0 200 22.386 200 50 C 200 77.614 177.614 100 150 100 C 122.386 100 100 77.614 100 50 C 100 22.386 122.386 0 150 0 Z M 50 100 C 77.614 100 100 122.386 100 150 C 100 177.614 77.614 200 50 200 C 22.386 200 0 177.614 0 150 C 0 122.386 22.386 100 50 100 Z M 150 100 C 177.614 100 200 122.386 200 150 C 200 177.614 177.614 200 150 200 C 122.386 200 100 177.614 100 150 C 100 122.386 122.386 100 150 100 Z" fill="#CCC"></path>
    </svg>