<svg xmlns="http://www.w3.org/2000/svg" width="40" height="40"><g><defs><linearGradient id="idwmHwTRus0g1771497759" gradientTransform="rotate(90, 0.5, 0.5)"><stop offset="0" stop-color="hsl(204, 100%, 50%)" stop-opacity="1"></stop><stop offset="1" stop-color="hsl(193, 100%, 51%)" stop-opacity="1"></stop></linearGradient></defs><path d="M 0 0 L 40 0 L 40 40 L 0 40 Z" fill="url(#idwmHwTRus0g1771497759)"></path></g><path d="M 16.291 28.411 C 23.839 28.411 27.966 22.366 27.966 17.124 C 27.966 16.953 27.963 16.781 27.954 16.611 C 28.754 16.054 29.447 15.359 30.001 14.557 C 29.251 14.878 28.457 15.089 27.646 15.181 C 28.495 14.695 29.136 13.914 29.45 12.987 C 28.641 13.451 27.761 13.777 26.844 13.95 C 26.056 13.145 24.975 12.693 23.849 12.697 C 21.583 12.697 19.744 14.474 19.744 16.664 C 19.744 16.974 19.781 17.277 19.851 17.569 C 16.578 17.422 13.514 15.92 11.393 13.423 C 11.03 14.025 10.837 14.714 10.837 15.417 C 10.837 16.794 11.561 18.009 12.664 18.72 C 12.014 18.702 11.378 18.531 10.806 18.223 L 10.804 18.274 C 10.804 20.196 12.219 21.8 14.097 22.163 C 13.492 22.322 12.858 22.345 12.243 22.231 C 12.766 23.807 14.28 24.954 16.077 24.986 C 14.609 26.094 12.819 26.69 10.98 26.684 C 10.65 26.684 10.323 26.666 10.001 26.63 C 11.891 27.799 14.07 28.416 16.291 28.411" fill="rgb(255,255,255)"></path></svg>