<svg xmlns="http://www.w3.org/2000/svg" width="1280" height="630.39"><g><defs><linearGradient id="idSBc7iYQqig-277710401" gradientTransform="rotate(0, 0.5, 0.5)"><stop offset="0" stop-color="rgb(0,85,255)" stop-opacity="1"></stop><stop offset="1" stop-color="rgb(152,232,255)" stop-opacity="1"></stop></linearGradient></defs><path d="M 1200 550.39 C 1146.51 550.396 1099.474 514.998 1084.672 463.597 C 1069.87 412.195 1090.876 357.203 1136.178 328.761 C 1181.479 300.318 1240.136 305.293 1280 340.96 L 1280 158.39 C 1253.668 153.054 1226.867 150.374 1200 150.39 C 1079.72 150.39 971.83 203.48 898.51 287.51 L 740.9 468.12 C 695.365 520.454 629.371 550.467 560 550.39 C 462.58 550.39 378.71 492.39 341.1 408.95 L 248.34 203.24 C 202.55 101.68 111 25.19 0 0 L 0 630.39 L 1280 630.39 L 1280 519.82 C 1258.025 539.543 1229.527 550.433 1200 550.39 Z" fill="url(#idSBc7iYQqig-277710401)"></path></g></svg>