<svg xmlns="http://www.w3.org/2000/svg" width="640" height="720"><path d="M 574.94 366.14 L 490 381.65 C 447.964 389.323 404.691 377.947 371.863 350.594 C 339.035 323.241 320.038 282.73 320 240 L 320 160 C 320 71.634 248.366 0 160 0 C 71.634 0 0 71.634 0 160 C 0 248.366 71.634 320 160 320 L 240 320 C 280.745 320.016 318.7 340.697 340.803 374.926 C 362.906 409.154 366.139 452.257 349.39 489.4 L 312.07 571.91 C 291.046 618.446 280.205 668.935 280.27 720 L 640 720 L 640 360.27 C 618.181 360.263 596.406 362.228 574.94 366.14 Z M 160 240 C 115.817 240 80 204.183 80 160 C 80 115.817 115.817 80 160 80 C 204.183 80 240 115.817 240 160 C 240 204.183 204.183 240 160 240 Z" fill="rgb(255,255,255)"></path></svg>